Coordinates
version=1
nRows=7
nColumns=40
inDegrees=yes

Units are S.I. units (second, meters, Newtons, ...)
If the header above contains a line with 'inDegrees', this indicates whether rotational values are in degrees (yes) or radians (no).

endheader
time	pelvis_tilt	pelvis_list	pelvis_rotation	pelvis_tx	pelvis_ty	pelvis_tz	hip_flexion_r	hip_adduction_r	hip_rotation_r	knee_angle_r	knee_angle_r_beta	ankle_angle_r	subtalar_angle_r	mtp_angle_r	hip_flexion_l	hip_adduction_l	hip_rotation_l	knee_angle_l	knee_angle_l_beta	ankle_angle_l	subtalar_angle_l	mtp_angle_l	lumbar_extension	lumbar_bending	lumbar_rotation	arm_flex_r	arm_add_r	arm_rot_r	elbow_flex_r	pro_sup_r	wrist_flex_r	wrist_dev_r	arm_flex_l	arm_add_l	arm_rot_l	elbow_flex_l	pro_sup_l	wrist_flex_l	wrist_dev_l
      2.19500000	    -20.89216149	      7.90639753	     12.73834837	     -2.62358967	      0.95970223	      0.30134856	     26.31120514	    -11.60139178	    -10.50573684	    107.16090572	      1.87031063	    -12.37659999	      0.00000000	      0.00000000	     40.91803242	      7.43506283	     -5.95495778	     40.89374200	      0.71373044	      7.32245538	      0.00000000	      0.00000000	    -25.71999334	    -10.67339851	     -9.22119687	     -6.07399718	    -13.95486267	    -11.33069422	     71.84128422	     38.44980007	      0.00000000	      0.00000000	      7.06842561	    -23.86523970	      0.84588645	     95.51202836	     50.26260691	      0.00000000	      0.00000000
      2.20000000	    -21.06858966	      7.43204477	     14.53941995	     -2.59571107	      0.95634991	      0.29850453	     29.01417281	    -12.29361028	    -11.29037509	    109.94090824	      1.91883083	    -10.82284904	      0.00000000	      0.00000000	     39.17104049	      8.18637193	     -3.57775520	     40.97214283	      0.71509879	      9.60876767	      0.00000000	      0.00000000	    -25.14659712	     -9.67887483	     -9.47245249	    -10.45234956	    -14.32482506	    -11.74879478	     70.60964178	     38.94325903	      0.00000000	      0.00000000	     13.47268018	    -22.78684248	      5.06544686	     94.59462702	     49.75759345	      0.00000000	      0.00000000
      2.20500000	    -21.26196740	      6.85433155	     16.33838852	     -2.56811146	      0.95283881	      0.29563471	     31.85115549	    -13.02410317	    -11.96959674	    112.48335465	      1.96320489	     -9.18204555	      0.00000000	      0.00000000	     37.45633461	      8.74302006	     -1.23696031	     41.03437995	      0.71618504	     11.89415100	      0.00000000	      0.00000000	    -24.60164036	     -8.51899395	    -11.27580196	    -13.40082555	    -14.90729866	    -10.43378681	     68.86053647	     39.02064418	      0.00000000	      0.00000000	     17.64570692	    -21.65243515	      6.18523252	     95.47830986	     49.70384409	      0.00000000	      0.00000000
      2.21000000	    -21.46039204	      6.17828608	     18.10878935	     -2.54078157	      0.94924270	      0.29282128	     34.81930651	    -13.78294638	    -12.52455100	    114.75671640	      2.00288254	     -7.53450533	      0.00000000	      0.00000000	     35.77494294	      9.07164243	      1.00018331	     41.06392956	      0.71670077	     14.09640510	      0.00000000	      0.00000000	    -24.03415817	     -7.25772314	    -12.78196283	    -16.80300808	    -15.27199120	     -9.91116831	     68.00935080	     39.36958209	      0.00000000	      0.00000000	     22.17441816	    -20.52674524	      7.72851284	     96.20722294	     49.49034209	      0.00000000	      0.00000000
      2.21500000	    -21.66629983	      5.37718156	     19.84797968	     -2.51371633	      0.94560489	      0.29009699	     37.92587683	    -14.54325026	    -12.97497713	    116.72756357	      2.03728031	     -5.90808038	      0.00000000	      0.00000000	     34.15671940	      9.13663677	      3.11916121	     41.05674288	      0.71657534	     16.13979385	      0.00000000	      0.00000000	    -23.37160604	     -5.89419902	    -14.35901122	    -20.06119639	    -15.62822808	     -9.45619970	     67.27273544	     40.00505338	      0.00000000	      0.00000000	     26.66850179	    -19.26629753	      8.84712473	     96.84658044	     49.07159878	      0.00000000	      0.00000000
      2.22000000	    -21.85383464	      4.42790148	     21.55501037	     -2.48685076	      0.94201098	      0.28750244	     41.12861230	    -15.27559659	    -13.35913422	    118.34944229	      2.06558744	     -4.35358674	      0.00000000	      0.00000000	     32.60226453	      8.90006529	      5.10833533	     40.99945788	      0.71557553	     17.83450018	      0.00000000	      0.00000000	    -22.67740852	     -4.31116440	    -16.59296932	    -22.45840563	    -15.85400848	     -9.07361967	     66.20098950	     39.98739720	      0.00000000	      0.00000000	     30.38938320	    -18.57028972	      8.79370863	     98.43393208	     49.13485076	      0.00000000	      0.00000000
      2.22500000	    -22.07223643	      3.35789702	     23.18866115	     -2.46018835	      0.93838070	      0.28509728	     44.49852753	    -16.00089175	    -13.62093077	    119.63478272	      2.08802086	     -2.83775437	      0.00000000	      0.00000000	     31.17452999	      8.38414447	      6.93838108	     40.88325255	      0.71354737	     19.53337931	      0.00000000	      0.00000000	    -21.82005221	     -2.80142863	    -17.56241227	    -26.65560417	    -16.65750418	     -8.48982298	     66.96484850	     40.59522841	      0.00000000	      0.00000000	     35.57122434	    -17.02255923	     10.49887808	     98.19947222	     48.78243486	      0.00000000	      0.00000000
